<svg id="FullLogo" xmlns="http://www.w3.org/2000/svg" viewBox="0 0 306 134.41"><defs><style>.cls-1{fill:#fff;}.cls-2{fill:#c3272e;}.cls-3{fill:#5a6270;}</style></defs><title>RMail Logo</title><path class="cls-1" d="M135.66,68A67.21,67.21,0,1,1,68.46.79,67.2,67.2,0,0,1,135.66,68Z" transform="translate(-1.25 -0.79)"/><path class="cls-2" d="M135.66,68A67.2,67.2,0,1,1,68.46.79,67.2,67.2,0,0,1,135.66,68ZM68.46,6.27A61.73,61.73,0,1,0,130.18,68,61.73,61.73,0,0,0,68.46,6.27Z" transform="translate(-1.25 -0.79)"/><path class="cls-2" d="M110.49,104.13H88.39l-22.61-32H61.17V91.82q0,5.69.7,7.17a5.12,5.12,0,0,0,2.46,2.36q1.76.88,6.57.88v1.91H35v-1.91q4.86,0,6.6-.91A5.27,5.27,0,0,0,44,99q.7-1.45.7-7.14V50.47q0-5.69-.7-7.17A5.12,5.12,0,0,0,41.56,41a7.24,7.24,0,0,0-1.9-.56h-20a56.05,56.05,0,0,0,91.63,63.74Z" transform="translate(-1.25 -0.79)"/><path class="cls-2" d="M66.71,37.74H61.17V68.48h2.95q7.19,0,10.76-1.32A10.73,10.73,0,0,0,80.5,62.4a17.43,17.43,0,0,0,2-9q0-8-3.75-11.85T66.71,37.74Z" transform="translate(-1.25 -0.79)"/><path class="cls-2" d="M49.71,34H67.59q12.73,0,18.63,1.76a18.75,18.75,0,0,1,9.62,6.49,17.42,17.42,0,0,1,3.73,11.1A16.58,16.58,0,0,1,94,66.15,23.07,23.07,0,0,1,84,71l16.87,23.75c1,1.33,1.78,2.42,2.5,3.32h12.42A56.05,56.05,0,0,0,23.92,34H49.71Z" transform="translate(-1.25 -0.79)"/><path class="cls-1" d="M103.36,98c-.72-.89-1.54-2-2.5-3.32L84,71a23.08,23.08,0,0,0,10-4.81,16.58,16.58,0,0,0,5.59-12.83,17.42,17.42,0,0,0-3.73-11.1,18.75,18.75,0,0,0-9.62-6.49Q80.32,34,67.59,34H23.92a56.2,56.2,0,0,0-4.25,6.42h20a7.21,7.21,0,0,1,1.9.56A5.12,5.12,0,0,1,44,43.31q.7,1.47.7,7.17V91.82q0,5.69-.7,7.14a5.27,5.27,0,0,1-2.43,2.35q-1.73.91-6.6.91v1.91H70.9v-1.91q-4.81,0-6.57-.88A5.12,5.12,0,0,1,61.87,99q-.7-1.48-.7-7.16V72.15h4.6l22.61,32H111.3a56.15,56.15,0,0,0,4.48-6.1ZM80.5,62.4a10.73,10.73,0,0,1-5.62,4.76q-3.57,1.32-10.76,1.32H61.17V37.74h5.54q8.33,0,12.08,3.83t3.75,11.85A17.43,17.43,0,0,1,80.5,62.4Z" transform="translate(-1.25 -0.79)"/><path class="cls-3" d="M177.54,79.72q.65,1.43,1.17,2.93.56-1.5,1.19-3t1.33-2.84l21.22-39.16a2.81,2.81,0,0,1,1.44-1.57,7.55,7.55,0,0,1,2.24-.26h8.16v67.54h-9.61V57.09q0-1.13.07-2.44t.16-2.67L183.37,92a4.1,4.1,0,0,1-3.87,2.48H178A4,4,0,0,1,174.09,92l-22-40.2q.14,1.41.23,2.74t.09,2.51v46.29h-9.61V35.84H151a7.56,7.56,0,0,1,2.24.26,2.82,2.82,0,0,1,1.45,1.57l21.55,39.26Q176.89,78.29,177.54,79.72Z" transform="translate(-1.25 -0.79)"/><path class="cls-3" d="M257.77,103.38a4.32,4.32,0,0,1-2.19-.45,3.41,3.41,0,0,1-1.26-1.8l-1-3.89a36.65,36.65,0,0,1-3.59,3,23.35,23.35,0,0,1-3.66,2.16,17.94,17.94,0,0,1-4.06,1.34,23.89,23.89,0,0,1-4.78.44,17.64,17.64,0,0,1-5.39-.8,11.82,11.82,0,0,1-4.32-2.42,11.42,11.42,0,0,1-2.87-4,13.91,13.91,0,0,1-1.05-5.63,10.89,10.89,0,0,1,1.47-5.39,13.44,13.44,0,0,1,4.85-4.71,31.27,31.27,0,0,1,8.91-3.45,64.36,64.36,0,0,1,13.64-1.55V73q0-5.16-2.19-7.69t-6.44-2.53a14.06,14.06,0,0,0-4.85.73,21.93,21.93,0,0,0-3.4,1.57q-1.45.84-2.57,1.57a4.28,4.28,0,0,1-2.38.73,2.84,2.84,0,0,1-1.75-.54,4.43,4.43,0,0,1-1.19-1.34l-1.82-3.28a27.16,27.16,0,0,1,19.22-7.55,18.79,18.79,0,0,1,7.3,1.34,14.64,14.64,0,0,1,5.36,3.78,16.79,16.79,0,0,1,3.31,5.79A23,23,0,0,1,262.24,73v30.39ZM240.28,97.1A14.36,14.36,0,0,0,247,95.62a21.53,21.53,0,0,0,5.48-4.24V82.46a70.66,70.66,0,0,0-9.05.89,24.24,24.24,0,0,0-6,1.74,8.16,8.16,0,0,0-3.29,2.51,5.39,5.39,0,0,0-1,3.17,7,7,0,0,0,.54,2.89,5.22,5.22,0,0,0,1.49,2,6.08,6.08,0,0,0,2.24,1.13A10.66,10.66,0,0,0,240.28,97.1Z" transform="translate(-1.25 -0.79)"/><path class="cls-3" d="M286.08,41.1a6.32,6.32,0,0,1-.54,2.58,6.79,6.79,0,0,1-1.47,2.13,7.14,7.14,0,0,1-2.17,1.45,6.52,6.52,0,0,1-2.63.54,6.08,6.08,0,0,1-2.54-.54,6.68,6.68,0,0,1-2.07-1.45,7.14,7.14,0,0,1-1.42-2.13,6.28,6.28,0,0,1-.54-2.58,6.4,6.4,0,0,1,.54-2.63,7.17,7.17,0,0,1,1.42-2.13,6.69,6.69,0,0,1,2.07-1.45,6.08,6.08,0,0,1,2.54-.54,6.51,6.51,0,0,1,2.63.54,7.15,7.15,0,0,1,2.17,1.45,6.82,6.82,0,0,1,1.47,2.13A6.44,6.44,0,0,1,286.08,41.1ZM284.4,55.54v47.84h-10V55.54Z" transform="translate(-1.25 -0.79)"/><path class="cls-3" d="M307.25,34v69.41h-10V34Z" transform="translate(-1.25 -0.79)"/></svg>