<svg id="Layer_1" data-name="Layer 1" xmlns="http://www.w3.org/2000/svg" viewBox="0 0 1079 485"><defs><style>.cls-1{fill:#666;}.cls-2{fill:#c1272e;}.cls-3{fill:#fff;}</style></defs><path d="M478.3,330.92l-22-70.32H445.41v70.32H409.63V154.37c23.47,1.72,73.45-6.76,89.73,13.35,19.09,18.74,19.48,71.9-9.94,84.4l28,78.8Zm-2.21-121.19c.33-21-13.73-23.07-30.68-21.94v44.63C461.7,233.77,476.61,230.28,476.09,209.73Z"/><path d="M633.25,204c.3,20.51-8.4,40.33-27.22,48.12-9.74,4.88-28.8,2.86-39.45,3.25v75.55H545V154.37C586.67,154.62,632.08,145.79,633.25,204Zm-21.58.25c.21-31.9-20.76-31.6-45.09-30.67v63.08C592.5,237.83,611.35,237,611.67,204.25Z"/><path d="M767.79,242.4c-.06,24.13-3.86,48-15.46,67.08-13,23.73-44.06,33.41-67,18.95-45.28-27.55-46-144.29-.36-171.69C742.47,128.74,769.7,193,767.79,242.4Zm-22.78,0c1.35-28.82-11.77-91.16-50.84-66.46-27,22.81-27,110.06,0,132.91C733.26,333.54,746.34,271.23,745,242.4Z"/><path d="M874.52,284c1.59,52.26-58.23,68.08-89,30.67l12.71-16.21c10.27,14.56,34.91,22.9,48.21,8.48,12.66-14.14,7.54-40.77-10-50.24-23.33-13-46.3-25.47-45-56.48-2.07-48.09,53.7-67.37,83.22-33.17l-13,16c-22.61-28.4-59.24-5-47.37,28.3C829.44,241.26,873.76,234.69,874.52,284Z"/><path d="M937.11,173.58V330.92H915.52V173.58H883.15V154.37h86.33v19.21Z"/><path class="cls-1" d="M995.37,155.74c0,.58.07,1.45-.58,1.58h-4.85v15.42c-.19.76-1.26.55-2,.62s-1.78.14-2-.62V157.32c-.34-.16-5.33.38-5.28-.36-.14-.74-.48-2.52.43-2.82h13.64C995.46,154.26,995.32,155.15,995.37,155.74Z"/><path class="cls-1" d="M1020.19,172.74c-.23.93-3.46.92-3.72,0V157.17h0l-5.6,15.56c-.31.78-1.27.58-2,.63s-1.67.09-2-.63l-5.41-15.56h0v15.57c-.4,1-2.47.59-3.34.46s-.6-18.5,0-18.66c1.24-.73,5.56-.8,6.28.76.09.06,4.42,12,4.6,12.45h.06c.21-.5,4.65-12.32,4.76-12.42.89-1.82,4-1.14,5.58-1.08C1021.12,153.84,1019.82,172,1020.19,172.74Z"/><path class="cls-2" d="M295.2,329.61H241.92l-54.5-77.13H176.31v47.46q0,13.71,1.69,17.28a12.32,12.32,0,0,0,5.93,5.69q4.24,2.13,15.84,2.12v4.61H113.23V325q11.72,0,15.91-2.19a12.71,12.71,0,0,0,5.78-5.59q1.7-3.5,1.69-17.21V200.27q0-13.72-1.69-17.29a12.31,12.31,0,0,0-5.88-5.54,17.48,17.48,0,0,0-4.58-1.35H76.25A135.11,135.11,0,0,0,297.12,329.73Z"/><path class="cls-2" d="M189.67,169.58H176.31v74.1h7.11q17.34,0,25.94-3.18A25.86,25.86,0,0,0,222.91,229a42,42,0,0,0,4.82-21.69q0-19.29-9-28.57T189.67,169.58Z"/><path class="cls-2" d="M148.69,160.57h43.1q30.68,0,44.9,4.24a45.21,45.21,0,0,1,23.19,15.64,42,42,0,0,1,9,26.76,39.92,39.92,0,0,1-13.42,30.85,55.48,55.48,0,0,1-24.11,11.69L272,307c2.41,3.21,4.29,5.84,6,8H308A135.11,135.11,0,0,0,86.52,160.57Z"/><path class="cls-3" d="M278,314.84c-1.74-2.15-3.71-4.82-6-8l-40.64-57.08a55.57,55.57,0,0,0,24.11-11.59,40,40,0,0,0,13.47-30.93,41.93,41.93,0,0,0-9-26.75,45.17,45.17,0,0,0-23.19-15.65q-14.27-4.26-45-4.26H86.52A134,134,0,0,0,76.28,176h48.21a17.48,17.48,0,0,1,4.58,1.35,12.32,12.32,0,0,1,5.85,5.62q1.7,3.54,1.69,17.28v99.65q0,13.71-1.69,17.21a12.7,12.7,0,0,1-5.85,5.67Q124.9,325,113.16,325v4.6h86.61V325q-11.6,0-15.84-2.12a12.35,12.35,0,0,1-5.93-5.64q-1.69-3.57-1.69-17.26V252.53H187.4l54.5,77.13h55.25A135.08,135.08,0,0,0,308,315ZM222.91,229a25.86,25.86,0,0,1-13.55,11.48q-8.61,3.18-25.94,3.18h-7.11v-74.1h13.36q20.07,0,29.11,9.23t9,28.57A42,42,0,0,1,222.91,229Z"/><rect x="368.62" y="50.85" width="6.15" height="383.29"/></svg>