<?xml version="1.0" encoding="UTF-8"?>
<svg width="1191px" height="842px" viewBox="0 0 1191 842" version="1.1" xmlns="http://www.w3.org/2000/svg" xmlns:xlink="http://www.w3.org/1999/xlink">
    <!-- Generator: Sketch 59.1 (86144) - https://sketch.com -->
    <title>RSign-Vector</title>
    <desc>Created with Sketch.</desc>
    <g id="Page-1" stroke="none" stroke-width="1" fill="none" fill-rule="evenodd">
        <g id="RSign-Vector">
            <rect id="Rectangle" fill-opacity="0.01" fill="#FFFFFF" x="0" y="0" width="1191" height="842"></rect>
            <g id="Group" transform="translate(28.000000, 91.000000)">
                <ellipse id="Oval" fill="#FFFFFF" cx="268" cy="266.5" rx="267" ry="266"></ellipse>
                <path d="M279.914,104.433 C334.944,104.433 416.006,114.389 416.006,198.894 C416.006,235.697 387.89,272.573 341.993,281.062 L433.52,409.996 L493.066,409.996 C519.816,368.541 535.332,319.219 535.332,266.289 C535.332,119.232 415.571,0.018 267.84,0.018 C181.275,0.018 104.313,40.951 55.423,104.432 C125.075,104.433 244.673,104.433 279.914,104.433 Z" id="Path" fill="#C4272E" fill-rule="nonzero"></path>
                <path d="M232.444,122.731 L232.444,269.429 C259.517,269.429 262.036,270.374 283.757,266.91 C305.479,263.447 334.125,248.139 334.125,196.139 C334.125,144.137 306.737,129.972 283.284,125.564 C259.833,121.157 232.444,122.731 232.444,122.731 Z" id="Path" fill="#C4272E" fill-rule="nonzero"></path>
                <path d="M361.094,440.506 L253.65,287.165 L231.895,287.165 C231.895,287.165 232.426,386.916 232.426,399.651 C232.426,414.772 235.61,430.956 278.587,430.956 L278.587,440.507 L106.941,440.507 L106.941,430.956 C128.696,430.956 153.103,430.159 153.103,399.12 C153.103,368.081 152.837,191.924 152.837,168.313 C152.837,151.334 147.531,135.947 124.682,135.947 L34.537,135.947 C12.766,174.475 0.347,218.939 0.347,266.291 C0.347,413.347 120.108,532.562 267.84,532.562 C348.649,532.562 421.088,496.892 470.136,440.507 L361.094,440.507 L361.094,440.506 Z" id="Path" fill="#C4272E" fill-rule="nonzero"></path>
            </g>
            <g id="Group" transform="translate(523.000000, 166.000000)" fill="#5A6271" fill-rule="nonzero">
                <path d="M184.711,53.208 C191.481,59.011 193.83,59.011 201.014,57.629 C208.2,56.247 211.928,47.128 212.619,42.846 C213.31,38.563 213.172,30.134 208.75,25.298 C199.494,15.903 176.006,4.987 164.676,2.362 C153.346,-0.264 135.979,-0.635 129.03,5.678 C119.911,13.962 114.661,19.361 102.225,41.191 C89.789,63.022 81.5,86.095 78.875,115.112 C78.162,122.992 79.014,154.904 82.328,174.11 C85.644,193.315 90.619,219.705 95.178,247.753 C99.66,275.329 103.192,285.612 100.153,320.292 C98.495,339.22 86.337,352.483 74.178,358.563 C62.018,364.641 39.36,360.36 26.096,353.727 C12.832,347.094 0.397,336.041 0.397,336.041 C1.087,342.674 14.766,364.09 22.366,369.893 C29.965,375.696 37.288,382.739 56.493,388.405 C75.698,394.069 94.489,393.655 113.555,378.594 C132.621,363.535 132.76,341.153 132.621,317.94 C132.482,294.727 129.857,287.403 127.646,273.586 C125.437,259.77 117.423,222.326 116.041,213.484 C114.66,204.641 112.311,182.948 112.588,159.045 C112.863,135.143 115.213,131.41 119.91,109.028 C124.607,86.645 134.555,68.958 136.629,64.537 C138.701,60.115 149.754,42.846 160.807,42.568 C171.862,42.292 177.94,47.404 184.711,53.208 Z" id="Path"></path>
                <path d="M241.938,183.308 C244.618,184.349 247.592,183.308 250.717,179.141 C253.842,174.975 290.149,121.259 294.612,111.439 C299.077,101.619 297.885,98.642 296.1,94.327 C294.315,90.013 287.469,85.251 284.495,83.763 C281.518,82.275 278.136,81.719 274.227,85.548 C259.348,100.13 237.176,155.632 235.243,161.286 C233.307,166.94 232.714,171.554 233.458,175.422 C234.202,179.29 239.26,182.266 241.938,183.308 Z" id="Path"></path>
                <path d="M423.633,414.66 C419.912,414.66 384.147,411.351 378.36,410.732 C372.571,410.111 374.018,407.63 375.258,402.048 C376.498,396.466 416.293,278.941 420.738,266.019 C425.576,251.955 430.97,239.558 435.312,234.597 C438.562,230.882 440.941,229.194 436.187,225.783 C431.431,222.372 420.531,215.887 415.466,213.511 C410.402,211.133 405.749,210.823 403.683,212.271 C401.615,213.717 400.271,219.299 399.755,221.47 C399.237,223.641 396.653,225.914 395.31,223.33 C393.967,220.746 394.173,219.713 392.208,205.654 C390.245,191.596 381.458,177.332 378.151,173.508 C374.842,169.684 362.852,159.141 341.559,169.27 C320.266,179.4 305.588,197.179 295.871,210.72 C286.154,224.261 270.855,254.237 267.445,261.886 C264.035,269.536 260.312,270.982 256.074,273.98 C251.838,276.978 240.053,287.935 228.58,298.685 C217.105,309.435 192.609,335.173 188.371,338.79 C184.133,342.407 183.719,338.894 183.822,334.655 C183.925,330.416 189.197,313.155 191.781,306.747 C194.365,300.339 204.082,281.319 209.025,271.856 C215.257,259.928 226.242,248.123 234.984,240.398 C240.259,235.735 238.937,231.115 236.359,228.709 C228.181,221.077 218.48,214.613 208.509,212.55 C202.589,211.325 201.29,219.082 199.054,225.614 C196.82,232.146 192.618,240.281 186.161,254.323 C174.513,279.659 152.604,315.775 155.362,349.954 C156.676,366.247 170.108,377.655 176.587,382.479 C183.064,387.303 185.819,384.27 187.888,381.239 C201.691,360.993 233.093,318.391 254.868,291.38 C257.196,288.493 259.278,288.485 258.727,291.931 C258.176,295.377 251.284,319.359 254.454,342.925 C257.624,366.493 277.884,377.243 288.22,382.066 C297.831,386.55 300.212,383.445 302.693,380.136 C305.935,375.814 347.209,306.126 375.599,283.525 C380.238,279.832 381.663,281.045 380.562,285.867 C379.458,290.691 343.074,400.81 341.421,404.394 C339.767,407.976 338.249,408.39 335.632,408.39 C333.013,408.39 296.903,408.253 286.017,409.355 C275.128,410.457 262.449,411.009 255.283,413.49 C234.424,420.711 225.857,437.746 220.965,463.519 C216.729,485.835 217.106,536.839 235.299,565.162 C253.49,593.484 270.029,584.596 279.953,579.014 C289.875,573.432 309.723,550.278 325.226,519.682 C340.729,489.086 363.677,432.854 365.539,429.133 C367.401,425.412 374.635,426.238 386.625,426.031 C398.615,425.826 417.43,422.724 424.457,419.623 C431.489,416.52 427.354,414.66 423.633,414.66 Z M372.528,265.711 C364.124,275.678 338.323,300.6 331.874,308.223 C325.423,315.844 299.233,343.698 296.399,347.02 C293.565,350.342 288.956,348.844 289.46,340.081 C289.948,331.579 291.817,309.192 296.999,290.569 C305.194,261.116 323.86,218.605 342.438,200.478 C348.096,194.957 358.846,190.852 363.928,191.439 C369.008,192.026 376.143,195.543 378.489,207.564 C380.835,219.585 382.204,232.876 381.714,241.573 C381.225,250.269 380.932,255.743 372.528,265.711 Z M329.719,435.146 C328.08,439.773 314.196,470.435 309.569,481.33 C304.94,492.225 289.803,520.764 278.811,534.166 C267.821,547.568 258.854,552.195 255.67,553.256 C252.488,554.317 240.051,556.053 236.967,539.084 C233.881,522.113 232.627,503.313 235.135,486.15 C237.641,468.988 241.467,458.9 243.715,453.851 C247.373,445.64 251.332,437.556 257.985,434.568 C264.639,431.578 275.823,429.361 283.44,428.685 C291.055,428.011 323.452,427.335 327.983,427.529 C332.516,427.723 331.358,430.518 329.719,435.146 Z" id="Shape"></path>
                <path d="M549.823,347.313 C543.061,353.979 540.884,352.438 541.989,345.215 C544.087,331.506 548.704,319.897 553.88,307.447 C559.056,294.997 584.792,247.861 590.526,237.93 C596.262,227.998 594.59,226.423 592.206,223.242 C585.911,214.849 568.286,203.239 557.376,198.344 C552.981,196.372 547.864,196.107 543.669,200.162 C539.472,204.219 494.851,263.947 487.997,272.898 C481.143,281.851 457.224,318.5 452.048,325.353 C447.234,331.732 446.874,327.031 447.573,325.074 C448.272,323.115 452.188,316.4 459.743,300.734 C467.296,285.068 489.257,257.513 493.593,252.478 C497.929,247.442 497.929,241.847 495.132,238.35 C492.333,234.853 474.29,219.886 470.372,217.088 C466.456,214.291 462.12,217.787 460.302,222.684 C458.484,227.58 451.138,244.331 446.314,254.996 C442.662,263.073 426.033,302.411 421.277,315.979 C416.521,329.547 411.345,350.528 408.779,361.44 C405.927,373.565 405.33,377.385 409.248,383.54 C413.164,389.694 425.752,391.374 430.928,391.653 C436.104,391.932 436.944,390.114 437.783,388.296 C438.621,386.478 439.881,380.323 441.279,376.267 C442.677,372.211 449.392,357.244 457.924,341.298 C466.457,325.351 494.713,288.564 500.727,280.732 C508.293,270.878 534.997,244.083 545.627,236.25 C549.164,233.645 552.762,236.67 551.223,239.048 C549.684,241.426 549.125,242.265 545.909,247.441 C538.346,259.606 523.667,296.399 516.534,324.094 C513.2,337.039 514.155,350.391 516.673,360.321 C519.193,370.253 536.398,381.163 542.761,384.241 C549.126,387.319 550.945,385.919 552.902,383.122 C554.861,380.325 583.955,340.46 591.369,330.808 C598.783,321.158 632.213,279.054 634.451,276.677 C636.689,274.3 637.109,273.739 639.207,272.2 L639.207,265.487 C623.538,269.959 559.893,337.381 549.823,347.313 Z" id="Path"></path>
            </g>
        </g>
    </g>
</svg>